<svg data-v-423bf9ae="" xmlns="http://www.w3.org/2000/svg" viewBox="0 0 419 90" class="iconLeft"><!----><!----><!----><g data-v-423bf9ae="" id="f2b2bece-751b-46e4-8d1c-a90df7ce310f" fill="#041F57" transform="matrix(4.934210588231973,0,0,4.934210588231973,103.14341733943138,2.171052464322706)"><path d="M3.82 12.33L3.82 12.33L3.82 12.33Q3.25 12.33 2.68 12.22L2.68 12.22L2.68 12.22Q2.11 12.11 1.67 11.89L1.67 11.89L1.67 11.89Q1.22 11.68 0.94 11.36L0.94 11.36L0.94 11.36Q0.66 11.05 0.66 10.65L0.66 10.65L0.66 9.02L1.05 9.02L1.05 9.02Q1.27 10.47 1.95 11.09L1.95 11.09L1.95 11.09Q2.63 11.70 3.81 11.70L3.81 11.70L3.81 11.70Q4.61 11.70 5.09 11.36L5.09 11.36L5.09 11.36Q5.57 11.02 5.57 10.35L5.57 10.35L5.57 10.35Q5.57 9.74 5.19 9.35L5.19 9.35L5.19 9.35Q4.80 8.95 4.13 8.54L4.13 8.54L2.41 7.50L2.41 7.50Q1.46 6.94 1.06 6.36L1.06 6.36L1.06 6.36Q0.67 5.77 0.67 5.00L0.67 5.00L0.67 5.00Q0.67 3.89 1.52 3.25L1.52 3.25L1.52 3.25Q2.37 2.60 3.81 2.60L3.81 2.60L3.81 2.60Q4.38 2.60 4.95 2.72L4.95 2.72L4.95 2.72Q5.52 2.83 5.96 3.04L5.96 3.04L5.96 3.04Q6.41 3.26 6.69 3.58L6.69 3.58L6.69 3.58Q6.97 3.89 6.97 4.28L6.97 4.28L6.97 5.92L6.58 5.92L6.58 5.92Q6.34 4.47 5.68 3.85L5.68 3.85L5.68 3.85Q5.03 3.23 3.96 3.23L3.96 3.23L3.96 3.23Q3.21 3.23 2.77 3.60L2.77 3.60L2.77 3.60Q2.32 3.96 2.32 4.59L2.32 4.59L2.32 4.59Q2.32 4.89 2.43 5.12L2.43 5.12L2.43 5.12Q2.53 5.35 2.72 5.54L2.72 5.54L2.72 5.54Q2.91 5.74 3.18 5.92L3.18 5.92L3.18 5.92Q3.44 6.10 3.78 6.30L3.78 6.30L5.50 7.32L5.50 7.32Q6.45 7.88 6.90 8.42L6.90 8.42L6.90 8.42Q7.34 8.96 7.34 9.73L7.34 9.73L7.34 9.73Q7.34 10.93 6.43 11.63L6.43 11.63L6.43 11.63Q5.52 12.33 3.82 12.33ZM8.69 12.10L8.69 4.68L8.69 4.68Q8.69 4.05 8.52 3.66L8.52 3.66L8.52 3.66Q8.34 3.28 7.71 3.28L7.71 3.28L7.57 3.28L7.57 2.86L9.25 2.86L9.25 2.86Q9.62 2.86 9.86 2.95L9.86 2.95L9.86 2.95Q10.11 3.04 10.26 3.25L10.26 3.25L10.26 3.25Q10.40 3.46 10.46 3.81L10.46 3.81L10.46 3.81Q10.51 4.16 10.51 4.68L10.51 4.68L10.51 5.91L10.51 5.91Q10.71 5.77 10.95 5.64L10.95 5.64L10.95 5.64Q11.14 5.54 11.42 5.46L11.42 5.46L11.42 5.46Q11.70 5.38 12.05 5.38L12.05 5.38L12.05 5.38Q12.53 5.38 13.01 5.49L13.01 5.49L13.01 5.49Q13.48 5.60 13.86 5.89L13.86 5.89L13.86 5.89Q14.24 6.17 14.48 6.67L14.48 6.67L14.48 6.67Q14.71 7.17 14.71 7.94L14.71 7.94L14.71 12.10L12.89 12.10L12.89 8.01L12.89 8.01Q12.89 7.46 12.79 7.10L12.79 7.10L12.79 7.10Q12.68 6.73 12.51 6.50L12.51 6.50L12.51 6.50Q12.33 6.27 12.11 6.17L12.11 6.17L12.11 6.17Q11.89 6.08 11.63 6.08L11.63 6.08L11.63 6.08Q11.40 6.08 11.19 6.15L11.19 6.15L11.19 6.15Q10.99 6.23 10.84 6.33L10.84 6.33L10.84 6.33Q10.67 6.44 10.51 6.57L10.51 6.57L10.51 12.10L8.69 12.10ZM20.80 8.81L20.80 8.81L20.80 8.81Q20.80 8.20 20.71 7.69L20.71 7.69L20.71 7.69Q20.62 7.18 20.44 6.80L20.44 6.80L20.44 6.80Q20.26 6.43 19.98 6.22L19.98 6.22L19.98 6.22Q19.70 6.01 19.33 6.01L19.33 6.01L19.33 6.01Q18.97 6.01 18.69 6.22L18.69 6.22L18.69 6.22Q18.41 6.43 18.23 6.80L18.23 6.80L18.23 6.80Q18.05 7.18 17.96 7.69L17.96 7.69L17.96 7.69Q17.86 8.20 17.86 8.81L17.86 8.81L17.86 8.81Q17.86 9.41 17.96 9.92L17.96 9.92L17.96 9.92Q18.05 10.43 18.23 10.81L18.23 10.81L18.23 10.81Q18.41 11.19 18.69 11.40L18.69 11.40L18.69 11.40Q18.97 11.61 19.33 11.61L19.33 11.61L19.33 11.61Q19.70 11.61 19.98 11.40L19.98 11.40L19.98 11.40Q20.26 11.19 20.44 10.81L20.44 10.81L20.44 10.81Q20.62 10.43 20.71 9.92L20.71 9.92L20.71 9.92Q20.80 9.41 20.80 8.81ZM15.97 8.81L15.97 8.81L15.97 8.81Q15.97 8.09 16.21 7.46L16.21 7.46L16.21 7.46Q16.44 6.83 16.87 6.37L16.87 6.37L16.87 6.37Q17.30 5.91 17.93 5.64L17.93 5.64L17.93 5.64Q18.55 5.38 19.33 5.38L19.33 5.38L19.33 5.38Q20.12 5.38 20.74 5.64L20.74 5.64L20.74 5.64Q21.36 5.91 21.80 6.37L21.80 6.37L21.80 6.37Q22.23 6.83 22.46 7.46L22.46 7.46L22.46 7.46Q22.69 8.09 22.69 8.81L22.69 8.81L22.69 8.81Q22.69 9.52 22.46 10.15L22.46 10.15L22.46 10.15Q22.23 10.78 21.80 11.24L21.80 11.24L21.80 11.24Q21.36 11.70 20.74 11.97L20.74 11.97L20.74 11.97Q20.12 12.24 19.33 12.24L19.33 12.24L19.33 12.24Q18.55 12.24 17.93 11.97L17.93 11.97L17.93 11.97Q17.30 11.70 16.87 11.24L16.87 11.24L16.87 11.24Q16.44 10.78 16.21 10.15L16.21 10.15L16.21 10.15Q15.97 9.52 15.97 8.81ZM27.68 5.38L27.68 5.38L27.68 5.38Q28.41 5.38 28.96 5.64L28.96 5.64L28.96 5.64Q29.51 5.91 29.88 6.37L29.88 6.37L29.88 6.37Q30.25 6.83 30.44 7.46L30.44 7.46L30.44 7.46Q30.62 8.09 30.62 8.81L30.62 8.81L30.62 8.81Q30.62 9.52 30.44 10.15L30.44 10.15L30.44 10.15Q30.25 10.78 29.88 11.24L29.88 11.24L29.88 11.24Q29.50 11.70 28.93 11.97L28.93 11.97L28.93 11.97Q28.36 12.24 27.61 12.24L27.61 12.24L27.61 12.24Q27.26 12.24 26.99 12.17L26.99 12.17L26.99 12.17Q26.73 12.11 26.53 12.03L26.53 12.03L26.53 12.03Q26.31 11.94 26.14 11.82L26.14 11.82L26.14 14.76L24.32 14.76L24.32 7.34L24.32 7.34Q24.32 7.03 24.28 6.77L24.28 6.77L24.28 6.77Q24.25 6.51 24.15 6.32L24.15 6.32L24.15 6.32Q24.05 6.13 23.86 6.03L23.86 6.03L23.86 6.03Q23.66 5.94 23.35 5.94L23.35 5.94L23.21 5.94L23.21 5.52L24.60 5.52L24.60 5.52Q25.07 5.52 25.35 5.64L25.35 5.64L25.35 5.64Q25.62 5.77 25.77 6.10L25.77 6.10L25.77 6.10Q25.90 5.99 26.07 5.87L26.07 5.87L26.07 5.87Q26.25 5.74 26.48 5.63L26.48 5.63L26.48 5.63Q26.71 5.52 27.01 5.45L27.01 5.45L27.01 5.45Q27.31 5.38 27.68 5.38ZM27.40 6.01L27.40 6.01L27.40 6.01Q26.87 6.01 26.54 6.20L26.54 6.20L26.54 6.20Q26.22 6.40 26.04 6.58L26.04 6.58L26.04 6.58Q26.05 6.68 26.08 6.78L26.08 6.78L26.08 6.78Q26.11 6.87 26.12 6.99L26.12 6.99L26.12 6.99Q26.14 7.10 26.14 7.25L26.14 7.25L26.14 11.19L26.14 11.19Q26.29 11.31 26.47 11.40L26.47 11.40L26.47 11.40Q26.63 11.48 26.84 11.54L26.84 11.54L26.84 11.54Q27.06 11.61 27.33 11.61L27.33 11.61L27.33 11.61Q27.72 11.61 27.99 11.40L27.99 11.40L27.99 11.40Q28.25 11.19 28.42 10.81L28.42 10.81L28.42 10.81Q28.59 10.43 28.66 9.92L28.66 9.92L28.66 9.92Q28.73 9.41 28.73 8.81L28.73 8.81L28.73 8.81Q28.73 8.20 28.66 7.69L28.66 7.69L28.66 7.69Q28.59 7.18 28.43 6.80L28.43 6.80L28.43 6.80Q28.27 6.43 28.01 6.22L28.01 6.22L28.01 6.22Q27.76 6.01 27.40 6.01ZM35.62 5.38L35.62 5.38L35.62 5.38Q36.34 5.38 36.90 5.64L36.90 5.64L36.90 5.64Q37.45 5.91 37.82 6.37L37.82 6.37L37.82 6.37Q38.19 6.83 38.37 7.46L38.37 7.46L38.37 7.46Q38.56 8.09 38.56 8.81L38.56 8.81L38.56 8.81Q38.56 9.52 38.37 10.15L38.37 10.15L38.37 10.15Q38.19 10.78 37.81 11.24L37.81 11.24L37.81 11.24Q37.44 11.70 36.87 11.97L36.87 11.97L36.87 11.97Q36.30 12.24 35.55 12.24L35.55 12.24L35.55 12.24Q35.20 12.24 34.93 12.17L34.93 12.17L34.93 12.17Q34.66 12.11 34.47 12.03L34.47 12.03L34.47 12.03Q34.24 11.94 34.08 11.82L34.08 11.82L34.08 14.76L32.26 14.76L32.26 7.34L32.26 7.34Q32.26 7.03 32.22 6.77L32.22 6.77L32.22 6.77Q32.19 6.51 32.09 6.32L32.09 6.32L32.09 6.32Q31.99 6.13 31.79 6.03L31.79 6.03L31.79 6.03Q31.60 5.94 31.29 5.94L31.29 5.94L31.15 5.94L31.15 5.52L32.54 5.52L32.54 5.52Q33.01 5.52 33.28 5.64L33.28 5.64L33.28 5.64Q33.56 5.77 33.71 6.10L33.71 6.10L33.71 6.10Q33.84 5.99 34.01 5.87L34.01 5.87L34.01 5.87Q34.19 5.74 34.42 5.63L34.42 5.63L34.42 5.63Q34.65 5.52 34.95 5.45L34.95 5.45L34.95 5.45Q35.25 5.38 35.62 5.38ZM35.34 6.01L35.34 6.01L35.34 6.01Q34.80 6.01 34.48 6.20L34.48 6.20L34.48 6.20Q34.16 6.40 33.98 6.58L33.98 6.58L33.98 6.58Q33.99 6.68 34.02 6.78L34.02 6.78L34.02 6.78Q34.05 6.87 34.06 6.99L34.06 6.99L34.06 6.99Q34.08 7.10 34.08 7.25L34.08 7.25L34.08 11.19L34.08 11.19Q34.23 11.31 34.41 11.40L34.41 11.40L34.41 11.40Q34.57 11.48 34.78 11.54L34.78 11.54L34.78 11.54Q35 11.61 35.27 11.61L35.27 11.61L35.27 11.61Q35.66 11.61 35.92 11.40L35.92 11.40L35.92 11.40Q36.19 11.19 36.36 10.81L36.36 10.81L36.36 10.81Q36.53 10.43 36.60 9.92L36.60 9.92L36.60 9.92Q36.67 9.41 36.67 8.81L36.67 8.81L36.67 8.81Q36.67 8.20 36.60 7.69L36.60 7.69L36.60 7.69Q36.53 7.18 36.37 6.80L36.37 6.80L36.37 6.80Q36.20 6.43 35.95 6.22L35.95 6.22L35.95 6.22Q35.70 6.01 35.34 6.01ZM43.47 10.63L43.47 8.88L43.26 8.88L43.26 8.88Q42.25 8.88 41.81 9.24L41.81 9.24L41.81 9.24Q41.37 9.60 41.37 10.35L41.37 10.35L41.37 10.35Q41.37 10.93 41.61 11.23L41.61 11.23L41.61 11.23Q41.86 11.54 42.28 11.54L42.28 11.54L42.28 11.54Q42.60 11.54 42.82 11.40L42.82 11.40L42.82 11.40Q43.04 11.26 43.19 11.09L43.19 11.09L43.19 11.09Q43.36 10.89 43.47 10.63L43.47 10.63ZM42.42 5.38L42.42 5.38L42.42 5.38Q43.79 5.38 44.54 6.10L44.54 6.10L44.54 6.10Q45.29 6.83 45.29 8.32L45.29 8.32L45.29 12.10L44.10 12.10L43.61 11.47L43.54 11.47L43.54 11.47Q43.39 11.69 43.15 11.86L43.15 11.86L43.15 11.86Q42.95 12.01 42.63 12.12L42.63 12.12L42.63 12.12Q42.31 12.24 41.86 12.24L41.86 12.24L41.86 12.24Q40.70 12.24 40.09 11.71L40.09 11.71L40.09 11.71Q39.48 11.19 39.48 10.35L39.48 10.35L39.48 10.35Q39.48 9.84 39.65 9.46L39.65 9.46L39.65 9.46Q39.82 9.07 40.24 8.80L40.24 8.80L40.24 8.80Q40.67 8.53 41.40 8.39L41.40 8.39L41.40 8.39Q42.13 8.25 43.26 8.25L43.26 8.25L43.47 8.25L43.47 8.25Q43.47 6.99 43.12 6.50L43.12 6.50L43.12 6.50Q42.77 6.01 42.14 6.01L42.14 6.01L42.14 6.01Q41.90 6.01 41.68 6.05L41.68 6.05L41.68 6.05Q41.47 6.10 41.29 6.24L41.29 6.24L41.29 6.24Q41.10 6.38 40.96 6.63L40.96 6.63L40.96 6.63Q40.82 6.87 40.74 7.27L40.74 7.27L39.97 7.27L39.97 7.27Q39.97 6.90 40.02 6.52L40.02 6.52L40.02 6.52Q40.07 6.15 40.32 5.87L40.32 5.87L40.32 5.87Q40.57 5.59 41.15 5.48L41.15 5.48L41.15 5.48Q41.73 5.38 42.42 5.38ZM48.68 6.43L48.68 10.70L48.68 10.70Q48.80 10.96 48.99 11.16L48.99 11.16L48.99 11.16Q49.14 11.33 49.38 11.47L49.38 11.47L49.38 11.47Q49.62 11.61 49.94 11.61L49.94 11.61L49.94 11.61Q50.30 11.61 50.55 11.40L50.55 11.40L50.55 11.40Q50.81 11.19 50.97 10.81L50.97 10.81L50.97 10.81Q51.13 10.43 51.20 9.92L51.20 9.92L51.20 9.92Q51.27 9.41 51.27 8.81L51.27 8.81L51.27 8.81Q51.27 8.20 51.20 7.69L51.20 7.69L51.20 7.69Q51.13 7.18 50.96 6.80L50.96 6.80L50.96 6.80Q50.79 6.43 50.53 6.22L50.53 6.22L50.53 6.22Q50.26 6.01 49.87 6.01L49.87 6.01L49.87 6.01Q49.60 6.01 49.38 6.08L49.38 6.08L49.38 6.08Q49.17 6.15 49.01 6.22L49.01 6.22L49.01 6.22Q48.83 6.31 48.68 6.43L48.68 6.43ZM46.86 12.10L46.86 4.68L46.86 4.68Q46.86 4.05 46.68 3.66L46.68 3.66L46.68 3.66Q46.51 3.28 45.88 3.28L45.88 3.28L45.74 3.28L45.74 2.86L47.42 2.86L47.42 2.86Q47.78 2.86 48.03 2.95L48.03 2.95L48.03 2.95Q48.27 3.04 48.42 3.25L48.42 3.25L48.42 3.25Q48.57 3.46 48.62 3.81L48.62 3.81L48.62 3.81Q48.68 4.16 48.68 4.68L48.68 4.68L48.68 5.80L48.68 5.80Q48.85 5.68 49.07 5.59L49.07 5.59L49.07 5.59Q49.27 5.52 49.53 5.45L49.53 5.45L49.53 5.45Q49.80 5.38 50.15 5.38L50.15 5.38L50.15 5.38Q50.90 5.38 51.47 5.64L51.47 5.64L51.47 5.64Q52.04 5.91 52.42 6.37L52.42 6.37L52.42 6.37Q52.79 6.83 52.98 7.46L52.98 7.46L52.98 7.46Q53.16 8.09 53.16 8.81L53.16 8.81L53.16 8.81Q53.16 9.52 52.98 10.15L52.98 10.15L52.98 10.15Q52.79 10.78 52.42 11.24L52.42 11.24L52.42 11.24Q52.05 11.70 51.50 11.97L51.50 11.97L51.50 11.97Q50.95 12.24 50.22 12.24L50.22 12.24L50.22 12.24Q49.80 12.24 49.49 12.12L49.49 12.12L49.49 12.12Q49.18 12.01 48.99 11.86L48.99 11.86L48.99 11.86Q48.75 11.69 48.61 11.47L48.61 11.47L48.54 11.47L48.05 12.10L46.86 12.10ZM54.57 12.10L54.57 4.68L54.57 4.68Q54.57 4.05 54.40 3.66L54.40 3.66L54.40 3.66Q54.22 3.28 53.59 3.28L53.59 3.28L53.45 3.28L53.45 2.86L55.13 2.86L55.13 2.86Q55.50 2.86 55.74 2.95L55.74 2.95L55.74 2.95Q55.99 3.04 56.13 3.25L56.13 3.25L56.13 3.25Q56.28 3.46 56.34 3.81L56.34 3.81L56.34 3.81Q56.39 4.16 56.39 4.68L56.39 4.68L56.39 12.10L54.57 12.10ZM61.24 11.61L61.24 11.61L61.24 11.61Q61.96 11.61 62.42 11.27L62.42 11.27L62.42 11.27Q62.87 10.93 63.24 10.44L63.24 10.44L63.67 10.77L63.67 10.77Q63.52 11.00 63.30 11.26L63.30 11.26L63.30 11.26Q63.08 11.52 62.77 11.74L62.77 11.74L62.77 11.74Q62.45 11.96 62.03 12.10L62.03 12.10L62.03 12.10Q61.60 12.24 61.03 12.24L61.03 12.24L61.03 12.24Q60.28 12.24 59.69 11.98L59.69 11.98L59.69 11.98Q59.09 11.72 58.67 11.26L58.67 11.26L58.67 11.26Q58.25 10.79 58.03 10.17L58.03 10.17L58.03 10.17Q57.81 9.55 57.81 8.81L57.81 8.81L57.81 8.81Q57.81 7.97 58.04 7.32L58.04 7.32L58.04 7.32Q58.28 6.68 58.70 6.25L58.70 6.25L58.70 6.25Q59.11 5.82 59.67 5.60L59.67 5.60L59.67 5.60Q60.23 5.38 60.89 5.38L60.89 5.38L60.89 5.38Q61.54 5.38 62.10 5.58L62.10 5.58L62.10 5.58Q62.66 5.78 63.08 6.15L63.08 6.15L63.08 6.15Q63.49 6.51 63.73 7.03L63.73 7.03L63.73 7.03Q63.97 7.55 63.97 8.18L63.97 8.18L63.97 8.18Q63.97 8.33 63.96 8.49L63.96 8.49L63.96 8.49Q63.95 8.65 63.94 8.78L63.94 8.78L63.94 8.78Q63.92 8.93 63.91 9.06L63.91 9.06L59.70 9.06L59.70 9.06Q59.70 10.44 60.12 11.03L60.12 11.03L60.12 11.03Q60.55 11.61 61.24 11.61ZM59.70 8.43L62.08 8.43L62.08 8.43Q62.08 7.73 61.99 7.27L61.99 7.27L61.99 7.27Q61.89 6.80 61.74 6.52L61.74 6.52L61.74 6.52Q61.59 6.24 61.37 6.13L61.37 6.13L61.37 6.13Q61.15 6.01 60.89 6.01L60.89 6.01L60.89 6.01Q60.65 6.01 60.43 6.13L60.43 6.13L60.43 6.13Q60.21 6.24 60.05 6.52L60.05 6.52L60.05 6.52Q59.89 6.80 59.79 7.27L59.79 7.27L59.79 7.27Q59.70 7.73 59.70 8.43L59.70 8.43Z"></path></g><defs data-v-423bf9ae=""><linearGradient data-v-423bf9ae="" gradientTransform="rotate(25)" id="ee263fca-33db-4795-977c-0558d6d58506" x1="0%" y1="0%" x2="100%" y2="0%"><stop data-v-423bf9ae="" offset="0%" style="stop-color: rgb(0, 21, 214); stop-opacity: 1;"></stop><stop data-v-423bf9ae="" offset="100%" style="stop-color: rgb(9, 137, 251); stop-opacity: 1;"></stop></linearGradient></defs><g data-v-423bf9ae="" id="73fa1d3a-9369-4cc9-84c5-d639e8fce4e9" transform="matrix(3.6,0,0,3.6,-28,-26.5)" stroke="none" fill="url(#ee263fca-33db-4795-977c-0558d6d58506)"><path clip-rule="evenodd" d="M12 10.5v-3H8v2h2v13c0 1.1.9 2 2 2v5h2.3c-.2.3-.3.6-.3 1 0 1.1.9 2 2 2s2-.9 2-2c0-.4-.1-.7-.3-1h6.6c-.2.3-.3.6-.3 1 0 1.1.9 2 2 2s2-.9 2-2c0-.4-.1-.7-.3-1H30v-2H14v-3h16c1.1 0 2-.9 2-2v-12H12zm2 12h-2v-2h2v2zm0-4h-2v-2h2v2zm0-4h-2v-2h2v2zm4 8h-2v-2h2v2zm0-4h-2v-2h2v2zm0-4h-2v-2h2v2zm4 8h-2v-2h2v2zm0-4h-2v-2h2v2zm0-4h-2v-2h2v2zm4 8h-2v-2h2v2zm0-4h-2v-2h2v2zm0-4h-2v-2h2v2zm4 8h-2v-2h2v2zm0-4h-2v-2h2v2zm0-4h-2v-2h2v2z"></path></g><!----></svg>